<?xml version="1.0" encoding="UTF-8"?>
<!DOCTYPE svg PUBLIC "-//W3C//DTD SVG 1.1//EN" "http://www.w3.org/Graphics/SVG/1.1/DTD/svg11.dtd">
<svg xmlns="http://www.w3.org/2000/svg" version="1.1" width="2048px" height="2048px" style="shape-rendering:geometricPrecision; text-rendering:geometricPrecision; image-rendering:optimizeQuality; fill-rule:evenodd; clip-rule:evenodd" xmlns:xlink="http://www.w3.org/1999/xlink">
<g><path style="opacity:0.988" fill="#587149" d="M 1325.5,711.5 C 1334.49,709.766 1342.15,712.099 1348.5,718.5C 1349.31,720.423 1349.81,722.423 1350,724.5C 1350.42,845.179 1350.59,965.846 1350.5,1086.5C 1354.05,1086.85 1357.39,1086.18 1360.5,1084.5C 1363.54,1078.08 1366.88,1071.75 1370.5,1065.5C 1372.85,1064.44 1374.85,1062.94 1376.5,1061C 1382.22,1060.21 1387.89,1060.38 1393.5,1061.5C 1399.64,1065.9 1402.97,1071.9 1403.5,1079.5C 1403.38,1086.87 1401.88,1093.87 1399,1100.5C 1391.35,1110.48 1381.85,1118.31 1370.5,1124C 1343.88,1131.6 1324.71,1123.1 1313,1098.5C 1312.33,974.167 1312.33,849.833 1313,725.5C 1314.59,723.33 1315.92,720.996 1317,718.5C 1320,716.267 1322.83,713.934 1325.5,711.5 Z"/></g>
<g><path style="opacity:0.01" fill="#fbfbf8" d="M 1028.5,723.5 C 1023.84,722.259 1019.18,722.259 1014.5,723.5C 1014.61,722.883 1014.94,722.383 1015.5,722C 1019.5,721.333 1023.5,721.333 1027.5,722C 1028.06,722.383 1028.39,722.883 1028.5,723.5 Z"/></g>
<g><path style="opacity:0.983" fill="#5d7150" d="M 1028.5,723.5 C 1032.86,724.17 1036.19,726.503 1038.5,730.5C 1040.78,735.236 1041.78,740.236 1041.5,745.5C 1040.73,746.263 1040.23,747.263 1040,748.5C 1039.67,747.833 1039.33,747.167 1039,746.5C 1026.9,749.447 1015.23,752.78 1004,756.5C 1003.81,753.964 1003.31,751.631 1002.5,749.5C 1002.13,742.713 1002.79,736.046 1004.5,729.5C 1006.93,725.954 1010.26,723.954 1014.5,723.5C 1019.18,722.259 1023.84,722.259 1028.5,723.5 Z"/></g>
<g><path style="opacity:0.986" fill="#7b9e67" d="M 282.5,725.5 C 294.054,723.063 302.888,726.729 309,736.5C 309.333,801.5 309.667,866.5 310,931.5C 310.833,930.5 311.667,929.5 312.5,928.5C 321.737,924.225 331.403,921.059 341.5,919C 359.336,916.8 376.002,919.967 391.5,928.5C 399.133,934.797 406.466,941.464 413.5,948.5C 415.175,954.85 417.675,960.85 421,966.5C 423.018,974.008 423.851,981.675 423.5,989.5C 422.785,1024.83 422.285,1060.16 422,1095.5C 421.667,1096.83 421.333,1098.17 421,1099.5C 417.106,1103.26 412.939,1106.43 408.5,1109C 400.819,1111 394.319,1109.17 389,1103.5C 386.894,1101.62 385.561,1099.29 385,1096.5C 384.207,1061.16 384.373,1025.82 385.5,990.5C 385.128,984.676 383.961,979.009 382,973.5C 379.116,971.616 376.949,969.116 375.5,966C 372.048,965.108 369.048,963.442 366.5,961C 352.474,956.879 339.474,959.046 327.5,967.5C 320.267,971.949 315.434,978.283 313,986.5C 312,990.167 311,993.833 310,997.5C 309.667,1030.83 309.333,1064.17 309,1097.5C 297.642,1113.6 284.976,1114.6 271,1100.5C 270.667,1099.5 270.333,1098.5 270,1097.5C 269.912,977.833 270.245,858.167 271,738.5C 273.642,733.03 277.475,728.696 282.5,725.5 Z"/></g>
<g><path style="opacity:0.985" fill="#587149" d="M 1041.5,745.5 C 1041.2,772.834 1040.87,800.167 1040.5,827.5C 1055.88,827.101 1071.21,827.601 1086.5,829C 1100.15,834.165 1104.15,843.665 1098.5,857.5C 1095.95,859.597 1093.61,861.93 1091.5,864.5C 1089.11,865.18 1086.78,866.014 1084.5,867C 1069.5,867.389 1054.5,867.222 1039.5,866.5C 1038.5,935.835 1038.5,1005.17 1039.5,1074.5C 1040.17,1074.83 1040.83,1075.17 1041.5,1075.5C 1044.64,1073.98 1047.97,1073.14 1051.5,1073C 1054.43,1068.63 1057.93,1064.8 1062,1061.5C 1066.79,1060.41 1071.63,1060.25 1076.5,1061C 1078.58,1061.78 1080.42,1062.94 1082,1064.5C 1083.91,1067.59 1086.08,1070.59 1088.5,1073.5C 1089.9,1079.33 1089.4,1085 1087,1090.5C 1085.85,1091.74 1084.51,1092.74 1083,1093.5C 1081.8,1097.24 1079.63,1100.24 1076.5,1102.5C 1071.79,1105.85 1066.79,1108.69 1061.5,1111C 1049.5,1112.97 1037.5,1112.97 1025.5,1111C 1018.48,1107.83 1012.15,1103.66 1006.5,1098.5C 1004.67,1094.5 1002.83,1090.5 1001,1086.5C 999.91,1070.53 999.41,1054.53 999.5,1038.5C 1000.3,981.169 1000.64,923.836 1000.5,866.5C 988.495,866.667 976.495,866.5 964.5,866C 962.75,864.681 960.75,864.181 958.5,864.5C 958.5,863.5 958.5,862.5 958.5,861.5C 954.099,859.592 951.266,856.259 950,851.5C 948.231,844.753 949.897,839.087 955,834.5C 955.483,833.552 955.649,832.552 955.5,831.5C 959.295,831.624 962.629,830.457 965.5,828C 977.495,827.5 989.495,827.333 1001.5,827.5C 1001.54,801.495 1001.87,775.495 1002.5,749.5C 1003.31,751.631 1003.81,753.964 1004,756.5C 1015.23,752.78 1026.9,749.447 1039,746.5C 1039.33,747.167 1039.67,747.833 1040,748.5C 1040.23,747.263 1040.73,746.263 1041.5,745.5 Z"/></g>
<g><path style="opacity:0.977" fill="#577049" d="M 1110.5,864.5 C 1129.78,862.625 1141.11,871.125 1144.5,890C 1144.36,892.898 1143.86,895.731 1143,898.5C 1140.97,901.221 1139.47,904.221 1138.5,907.5C 1135.6,909.442 1132.93,911.609 1130.5,914C 1113.84,919.464 1101.67,914.63 1094,899.5C 1091.27,890.649 1092.27,882.316 1097,874.5C 1101.44,871.036 1105.94,867.702 1110.5,864.5 Z"/></g>
<g><path style="opacity:0.975" fill="#7a9e66" d="M 631.5,868.5 C 639.42,867.87 647.086,868.87 654.5,871.5C 656.634,875.666 659.467,879.333 663,882.5C 665.373,891.177 664.54,899.51 660.5,907.5C 659.311,908.429 657.978,908.762 656.5,908.5C 656.714,910.144 656.38,911.644 655.5,913C 636.892,922.746 623.392,918.246 615,899.5C 612.606,884.61 618.106,874.277 631.5,868.5 Z"/></g>
<g><path style="opacity:0.984" fill="#587149" d="M 1653.5,901.5 C 1666.2,901.205 1678.86,901.538 1691.5,902.5C 1694.24,903.909 1696.91,905.409 1699.5,907C 1715.4,909.282 1722.24,918.449 1720,934.5C 1714.76,946.711 1705.59,950.878 1692.5,947C 1682.93,942.44 1672.93,941.107 1662.5,943C 1656.24,944.474 1650.24,946.641 1644.5,949.5C 1630.98,963.714 1632.98,975.214 1650.5,984C 1656.13,984.869 1661.8,985.369 1667.5,985.5C 1682.59,983.787 1697.59,984.287 1712.5,987C 1735.7,996.562 1749.37,1013.9 1753.5,1039C 1751.12,1047.68 1749.62,1056.52 1749,1065.5C 1747.45,1069.33 1745.61,1073 1743.5,1076.5C 1738.82,1080.71 1734.49,1085.21 1730.5,1090C 1726.1,1092.5 1722.1,1095.5 1718.5,1099C 1713.83,1101 1709.17,1103 1704.5,1105C 1697.34,1107.38 1690,1109.38 1682.5,1111C 1670.17,1111.67 1657.83,1111.67 1645.5,1111C 1634.53,1107.6 1623.87,1103.6 1613.5,1099C 1611.26,1095.59 1608.26,1093.09 1604.5,1091.5C 1600.68,1083.27 1600.51,1074.93 1604,1066.5C 1610.18,1058.86 1618.01,1056.52 1627.5,1059.5C 1652.57,1077.95 1677.91,1078.11 1703.5,1060C 1719.1,1044.38 1716.43,1032.38 1695.5,1024C 1684.53,1022.21 1673.53,1022.04 1662.5,1023.5C 1653.79,1023.05 1645.13,1022.21 1636.5,1021C 1628.91,1018.53 1621.91,1015.03 1615.5,1010.5C 1611.52,1004.69 1607.02,999.359 1602,994.5C 1601.18,987.789 1600.18,981.123 1599,974.5C 1598.54,978.882 1598.54,983.216 1599,987.5C 1591.98,976.874 1590.64,965.54 1595,953.5C 1599.28,944.605 1603.78,935.938 1608.5,927.5C 1611.87,925.304 1614.87,922.47 1617.5,919C 1623.83,916.172 1629.83,912.839 1635.5,909C 1642.01,907.392 1648.01,904.892 1653.5,901.5 Z"/></g>
<g><path style="opacity:0.986" fill="#587149" d="M 1492.5,915.5 C 1505.62,915.399 1518.62,916.565 1531.5,919C 1536.21,921.117 1540.54,923.784 1544.5,927C 1546.22,927.346 1547.88,927.846 1549.5,928.5C 1553.2,933.183 1557.53,937.183 1562.5,940.5C 1563.48,944.087 1565.64,946.754 1569,948.5C 1572.33,955.742 1575.67,963.075 1579,970.5C 1579.86,976.585 1579.53,982.585 1578,988.5C 1574.93,990.299 1573.1,992.966 1572.5,996.5C 1569,997.911 1566.34,1000.24 1564.5,1003.5C 1561.04,1005.07 1557.7,1006.9 1554.5,1009C 1517.87,1023.34 1479.87,1028.51 1440.5,1024.5C 1441.35,1037.38 1445.35,1049.05 1452.5,1059.5C 1455.24,1061.58 1457.24,1064.24 1458.5,1067.5C 1461.58,1068.75 1464.25,1070.58 1466.5,1073C 1488.89,1081.18 1510.22,1078.84 1530.5,1066C 1532.93,1063.56 1535.6,1061.56 1538.5,1060C 1541.27,1055.13 1545.27,1051.97 1550.5,1050.5C 1551.74,1047.99 1553.41,1045.66 1555.5,1043.5C 1559.64,1041.29 1563.98,1039.62 1568.5,1038.5C 1582.48,1039.73 1588.31,1047.4 1586,1061.5C 1585.03,1063.39 1584.36,1065.39 1584,1067.5C 1581.04,1070.96 1577.88,1074.29 1574.5,1077.5C 1573.61,1078.32 1573.28,1079.32 1573.5,1080.5C 1568.55,1082.27 1564.55,1085.43 1561.5,1090C 1547.87,1099.15 1533.2,1106.15 1517.5,1111C 1509.02,1112.02 1500.52,1112.86 1492,1113.5C 1467.04,1114.27 1445.87,1105.94 1428.5,1088.5C 1427.22,1086.82 1426.22,1084.99 1425.5,1083C 1423.83,1081.33 1421.83,1080.5 1419.5,1080.5C 1415.74,1073.44 1412.24,1066.11 1409,1058.5C 1400.07,1023.81 1403.4,990.476 1419,958.5C 1422.78,956.389 1425.45,953.389 1427,949.5C 1439.08,935.734 1453.58,925.568 1470.5,919C 1477.93,917.501 1485.26,916.334 1492.5,915.5 Z M 1501.5,951.5 C 1515.79,951.645 1527.45,957.145 1536.5,968C 1537.72,970.384 1537.72,972.717 1536.5,975C 1527.74,977.808 1519.07,980.808 1510.5,984C 1499.12,984.938 1487.79,986.271 1476.5,988C 1466.81,988.725 1457.14,988.559 1447.5,987.5C 1454.46,970.138 1467.13,958.972 1485.5,954C 1491.03,953.48 1496.36,952.647 1501.5,951.5 Z"/></g>
<g><path style="opacity:0.984" fill="#587049" d="M 1235.5,920.5 C 1245.84,920.334 1256.17,920.5 1266.5,921C 1272.74,922.52 1278.57,925.02 1284,928.5C 1285.22,932.366 1287.22,935.699 1290,938.5C 1290.67,941.833 1290.67,945.167 1290,948.5C 1287.49,951.367 1285.32,954.534 1283.5,958C 1280.8,959.34 1278.13,960.673 1275.5,962C 1264.84,961.536 1254.18,961.203 1243.5,961C 1215.54,966.172 1198.04,982.339 1191,1009.5C 1190.33,1015.5 1190.33,1021.5 1191,1027.5C 1193.79,1033.3 1196.13,1039.3 1198,1045.5C 1202.01,1050.68 1206.51,1055.34 1211.5,1059.5C 1212.69,1060.43 1214.02,1060.76 1215.5,1060.5C 1215.63,1063.59 1217.29,1065.43 1220.5,1066C 1229.03,1069.51 1237.87,1072.01 1247,1073.5C 1258.16,1071.39 1268.99,1068.39 1279.5,1064.5C 1283.7,1064.56 1287.7,1065.39 1291.5,1067C 1293.64,1069.81 1296.14,1072.31 1299,1074.5C 1302.82,1085.3 1300.49,1094.3 1292,1101.5C 1282.94,1104.45 1273.77,1107.29 1264.5,1110C 1248.6,1112.57 1232.93,1111.57 1217.5,1107C 1210.42,1104.53 1203.42,1101.86 1196.5,1099C 1186.2,1091.01 1176.7,1082.18 1168,1072.5C 1162.76,1063.13 1158.1,1053.46 1154,1043.5C 1151.11,1027.91 1150.78,1012.25 1153,996.5C 1158.23,979.64 1166.73,964.64 1178.5,951.5C 1184.72,946.106 1191.05,940.94 1197.5,936C 1202.42,934.253 1206.75,931.586 1210.5,928C 1218.99,925.634 1227.32,923.134 1235.5,920.5 Z"/></g>
<g><path style="opacity:0.98" fill="#587149" d="M 1109.5,923.5 C 1113.18,923.335 1116.85,923.501 1120.5,924C 1123.24,925.915 1126.24,927.082 1129.5,927.5C 1130.99,931.145 1132.49,934.811 1134,938.5C 1135.1,987.994 1135.93,1037.49 1136.5,1087C 1136.61,1092.76 1135.61,1098.26 1133.5,1103.5C 1130.37,1105.25 1128.04,1107.75 1126.5,1111C 1123.5,1111.17 1120.5,1111.33 1117.5,1111.5C 1107.84,1112.68 1101.34,1108.68 1098,1099.5C 1096.8,1051.85 1095.96,1004.18 1095.5,956.5C 1095.83,950.5 1096.17,944.5 1096.5,938.5C 1098.99,935.188 1100.66,931.522 1101.5,927.5C 1105.05,927.688 1107.72,926.355 1109.5,923.5 Z"/></g>
<g><path style="opacity:0.982" fill="#7a9e66" d="M 656.5,940.5 C 656.38,942.734 656.713,944.901 657.5,947C 656.735,958.884 656.068,970.551 655.5,982C 656.328,1005.76 656.828,1029.59 657,1053.5C 658.539,1064.61 659.705,1075.61 660.5,1086.5C 660.71,1127.18 660.21,1167.84 659,1208.5C 657.161,1214.03 655.828,1219.7 655,1225.5C 648.244,1238.59 638.411,1248.76 625.5,1256C 616.424,1256.91 607.424,1256.58 598.5,1255C 583.456,1246.64 580.456,1235.14 589.5,1220.5C 592.456,1218.9 595.456,1217.4 598.5,1216C 602.167,1215.33 605.833,1215.33 609.5,1216C 610,1216.5 610.5,1217 611,1217.5C 612.755,1214.96 614.755,1212.62 617,1210.5C 617.683,1205.77 618.683,1201.1 620,1196.5C 621.561,1113.51 622.394,1030.51 622.5,947.5C 623.5,947.5 624.5,947.5 625.5,947.5C 626.489,941.01 630.155,936.843 636.5,935C 643.249,933.669 649.582,934.669 655.5,938C 656.252,938.671 656.586,939.504 656.5,940.5 Z"/></g>
<g><path style="opacity:0.989" fill="#587149" d="M 815.5,934.5 C 820.179,934.334 824.845,934.501 829.5,935C 832.502,937.503 835.835,939.503 839.5,941C 840.525,943.071 841.358,945.238 842,947.5C 842.58,996.836 842.914,1046.17 843,1095.5C 842.64,1097.61 841.973,1099.61 841,1101.5C 826.613,1112.56 814.613,1110.56 805,1095.5C 804.667,1093.83 804.333,1092.17 804,1090.5C 792.704,1100.06 779.537,1105.56 764.5,1107C 747.97,1109.03 731.97,1107.03 716.5,1101C 710.755,1098.08 705.422,1094.58 700.5,1090.5C 694.775,1084.61 688.941,1078.94 683,1073.5C 680.936,1069.04 678.602,1064.71 676,1060.5C 674.619,1054.38 672.619,1048.38 670,1042.5C 669.333,1031.5 669.333,1020.5 670,1009.5C 672.428,1002.89 674.428,996.222 676,989.5C 679.474,983.456 683.141,977.456 687,971.5C 693.867,965.314 701.034,959.481 708.5,954C 725.464,944.445 743.797,940.778 763.5,943C 771.062,943.839 778.396,945.506 785.5,948C 790.689,951.897 796.356,955.064 802.5,957.5C 802.18,954.102 802.513,950.768 803.5,947.5C 806.911,942.43 810.911,938.096 815.5,934.5 Z M 750.5,980.5 C 761.587,982.05 771.92,985.717 781.5,991.5C 782.806,992.912 783.64,994.579 784,996.5C 785.586,997.376 787.086,998.376 788.5,999.5C 792.171,1007.85 794.838,1016.51 796.5,1025.5C 794.802,1033.29 792.636,1040.96 790,1048.5C 766.104,1075.52 741.604,1076.18 716.5,1050.5C 709.695,1039.75 707.528,1028.08 710,1015.5C 712.308,1009.71 714.808,1004.04 717.5,998.5C 718.325,997.614 719.325,997.281 720.5,997.5C 721.321,994.661 722.987,992.328 725.5,990.5C 733.361,985.795 741.694,982.461 750.5,980.5 Z"/></g>
<g><path style="opacity:0.983" fill="#587149" d="M 864.5,935.5 C 870.578,934.955 876.245,936.122 881.5,939C 885.337,940.498 887.337,943.331 887.5,947.5C 888.5,947.5 889.5,947.5 890.5,947.5C 890.334,953.509 890.501,959.509 891,965.5C 893.414,963.709 895.914,962.043 898.5,960.5C 913.715,955.065 929.382,950.898 945.5,948C 958.513,947.167 971.513,947.334 984.5,948.5C 994.656,955.508 997.323,964.841 992.5,976.5C 989.937,979.142 987.271,981.642 984.5,984C 966.248,984.865 948.248,987.532 930.5,992C 927.018,993.243 923.684,994.743 920.5,996.5C 917.5,997 914.5,997.5 911.5,998C 904.864,1001.56 898.698,1005.73 893,1010.5C 892.028,1012.3 890.861,1013.97 889.5,1015.5C 888.13,1043.15 887.296,1070.82 887,1098.5C 886.598,1099.87 886.098,1101.21 885.5,1102.5C 882.527,1103.81 880.193,1105.81 878.5,1108.5C 866.001,1114.18 856.501,1110.85 850,1098.5C 849.833,1077.5 849.667,1056.5 849.5,1035.5C 849.299,1006.14 849.966,976.807 851.5,947.5C 852.742,945.267 854.076,943.101 855.5,941C 858.587,939.132 861.587,937.299 864.5,935.5 Z"/></g>
<g><path style="opacity:0.984" fill="#7a9e66" d="M 582.5,936.5 C 589.292,935.667 595.625,936.834 601.5,940C 604.2,942.466 606.367,945.3 608,948.5C 608.289,991.503 608.789,1034.5 609.5,1077.5C 609.616,1085.24 609.116,1092.91 608,1100.5C 598.783,1112.27 588.283,1113.61 576.5,1104.5C 573.952,1100.74 571.952,1096.74 570.5,1092.5C 546.103,1110.09 519.436,1114.25 490.5,1105C 484.776,1102.99 479.109,1100.82 473.5,1098.5C 464.473,1090.14 455.806,1081.47 447.5,1072.5C 440.943,1058 436.943,1042.83 435.5,1027C 435.526,1021.45 436.026,1015.95 437,1010.5C 440.465,1000.44 444.132,990.439 448,980.5C 450.962,978.213 453.129,975.38 454.5,972C 461.611,965.845 468.945,959.845 476.5,954C 480.951,952.878 484.951,950.878 488.5,948C 508.478,943.335 528.478,943.335 548.5,948C 556.042,951.512 563.209,955.678 570,960.5C 569.274,953.315 571.107,946.982 575.5,941.5C 578.154,940.032 580.487,938.365 582.5,936.5 Z M 516.5,982.5 C 528.156,982.657 538.489,986.324 547.5,993.5C 551.675,999.195 555.842,1004.86 560,1010.5C 560.997,1015.81 561.83,1021.14 562.5,1026.5C 561.83,1031.86 560.997,1037.19 560,1042.5C 555.925,1047.65 552.091,1052.98 548.5,1058.5C 547.15,1059.95 545.484,1060.62 543.5,1060.5C 543.5,1061.5 543.5,1062.5 543.5,1063.5C 520.671,1075.8 500.671,1072.13 483.5,1052.5C 478.122,1044.84 474.789,1036.34 473.5,1027C 475.521,1016.75 479.188,1007.25 484.5,998.5C 489.688,994.799 494.688,990.966 499.5,987C 505.236,985.278 510.903,983.778 516.5,982.5 Z"/></g>
<g><path style="opacity:0.997" fill="#6d8c5c" d="M 656.5,940.5 C 658.562,942.41 660.062,944.743 661,947.5C 661.687,993.838 661.52,1040.17 660.5,1086.5C 659.705,1075.61 658.539,1064.61 657,1053.5C 656.828,1029.59 656.328,1005.76 655.5,982C 656.068,970.551 656.735,958.884 657.5,947C 656.713,944.901 656.38,942.734 656.5,940.5 Z"/></g>
<g><path style="opacity:0.243" fill="#fefefe" d="M 1617.5,1147.5 C 1623.7,1147.08 1629.7,1147.91 1635.5,1150C 1627.99,1150.83 1620.49,1151.67 1613,1152.5C 1612.5,1152.17 1612,1151.83 1611.5,1151.5C 1613.85,1150.46 1615.85,1149.12 1617.5,1147.5 Z"/></g>
<g><path style="opacity:0.015" fill="#fefffe" d="M 1816.5,1378.5 C 1821.51,1378.33 1826.51,1378.5 1831.5,1379C 1833.36,1380.42 1833.86,1382.25 1833,1384.5C 1820.8,1394.51 1807.64,1403.18 1793.5,1410.5C 1789.47,1407.14 1785.81,1403.47 1782.5,1399.5C 1785.02,1396.82 1787.68,1394.32 1790.5,1392C 1799.07,1387.22 1807.74,1382.72 1816.5,1378.5 Z"/></g>
</svg>
